<?xml version="1.0" encoding="UTF-8" standalone="no"?>
<svg
   xmlns:dc="http://purl.org/dc/elements/1.1/"
   xmlns:cc="http://creativecommons.org/ns#"
   xmlns:rdf="http://www.w3.org/1999/02/22-rdf-syntax-ns#"
   xmlns:svg="http://www.w3.org/2000/svg"
   xmlns="http://www.w3.org/2000/svg"
   xmlns:sodipodi="http://sodipodi.sourceforge.net/DTD/sodipodi-0.dtd"
   xmlns:inkscape="http://www.inkscape.org/namespaces/inkscape"
   xml:space="preserve"
   width="12"
   viewBox="0 0 12 13.756259"
   version="1.1"
   id="Layer_1"
   height="13.756259"
   enable-background="new 0 0 64 64"
   sodipodi:docname="flag.svg"
   inkscape:version="0.92.4 (5da689c313, 2019-01-14)"><sodipodi:namedview
     pagecolor="#ffffff"
     bordercolor="#666666"
     borderopacity="1"
     objecttolerance="10"
     gridtolerance="10"
     guidetolerance="10"
     inkscape:pageopacity="0"
     inkscape:pageshadow="2"
     inkscape:window-width="1920"
     inkscape:window-height="1017"
     id="namedview6"
     showgrid="false"
     fit-margin-top="0"
     fit-margin-left="0"
     fit-margin-right="0"
     fit-margin-bottom="0"
     inkscape:zoom="25.618729"
     inkscape:cx="9.4574597"
     inkscape:cy="8.3907545"
     inkscape:window-x="-8"
     inkscape:window-y="-8"
     inkscape:window-maximized="1"
     inkscape:current-layer="Layer_1" /><metadata
     id="metadata9"><rdf:RDF><cc:Work
         rdf:about=""><dc:format>image/svg+xml</dc:format><dc:type
           rdf:resource="http://purl.org/dc/dcmitype/StillImage" /><dc:title></dc:title></cc:Work></rdf:RDF></metadata><defs
     id="defs7" /><path
     style="fill:#4cac95;fill-opacity:1;stroke-width:0.26397994"
     id="path2"
     d="m 11.867482,1.7594268 c -0.08923,-0.088692 -0.194289,-0.1333104 -0.31572,-0.1333104 -0.06045,0 -0.187954,0.049632 -0.381715,0.1475652 C 10.976022,1.8718776 10.770117,1.98117 10.55339,2.1031284 10.336134,2.2242948 10.079018,2.3341104 9.7823046,2.4323112 9.485855,2.5302432 9.2113159,2.5798764 8.9586871,2.5798764 8.7253289,2.5798764 8.5194245,2.5355244 8.34203,2.446566 7.7536187,2.1709716 7.2417617,1.9653312 6.8072507,1.8296448 6.3727397,1.6942236 5.9054952,1.6261164 5.4052532,1.6261164 c -0.8637423,0 -1.8475956,0.2808744 -2.9505038,0.8415684 C 2.2271987,2.5811928 2.0640592,2.6691012 1.9584672,2.7335124 L 1.8536676,1.9650672 C 2.0904576,1.7594268 2.243302,1.4598096 2.243302,1.1216508 2.243302,0.5020896 1.7412121,0 1.1216512,0 0.50208984,0 0,0.5020896 0,1.1216508 0,1.5258048 0.21593558,1.8771612 0.53640724,2.0746188 L 2.0516521,13.185534 c 0.04514,0.330767 0.3281271,0.570725 0.6530863,0.570725 0.029566,0 0.059659,-0.0018 0.090017,-0.0058 0.3611246,-0.04963 0.6140174,-0.381978 0.5646531,-0.743104 L 2.750407,8.5415988 c 1.10502,-0.548286 2.0608914,-0.8246736 2.8649743,-0.8246736 0.3413259,0 0.6742047,0.050952 0.998636,0.1539012 0.3246953,0.103212 0.5947468,0.2151432 0.8096265,0.3363096 0.2148796,0.1214316 0.4685644,0.2338872 0.7602622,0.3363108 0.2922258,0.102948 0.5807559,0.154428 0.8655903,0.154428 0.7196093,0 1.5815037,-0.2711064 2.5859477,-0.8130576 C 11.761626,7.81935 11.854019,7.7549388 11.912359,7.6918476 11.970698,7.6287564 12,7.5390036 12,7.422324 V 2.0748828 C 12,1.9537152 11.95592,1.8483876 11.867482,1.7594268 Z"
     inkscape:connector-curvature="0" /></svg>