<?xml version="1.0" encoding="UTF-8" standalone="no"?>
<svg
   xmlns:dc="http://purl.org/dc/elements/1.1/"
   xmlns:cc="http://creativecommons.org/ns#"
   xmlns:rdf="http://www.w3.org/1999/02/22-rdf-syntax-ns#"
   xmlns:svg="http://www.w3.org/2000/svg"
   xmlns="http://www.w3.org/2000/svg"
   version="1.1"
   id="Capa_1"
   x="0px"
   y="0px"
   width="9.000001"
   height="14.335359"
   viewBox="0 0 9.0000006 14.335359"
   xml:space="preserve"><metadata
   id="metadata11"><rdf:RDF><cc:Work
       rdf:about=""><dc:format>image/svg+xml</dc:format><dc:type
         rdf:resource="http://purl.org/dc/dcmitype/StillImage" /><dc:title></dc:title></cc:Work></rdf:RDF></metadata><defs
   id="defs9" />
<g
   style="stroke:none;stroke-opacity:1;fill:#2d2d2d;fill-opacity:1"
   id="g4"
   transform="matrix(0.03365392,0,0,0.03365392,-2.6676789,0)">
	<path
   style="stroke:none;stroke-opacity:1;fill:#2d2d2d;fill-opacity:1"
   d="m 213.285,0 h -0.608 C 139.114,0 79.268,59.826 79.268,133.361 c 0,48.202 21.952,111.817 65.246,189.081 32.098,57.281 64.646,101.152 64.972,101.588 0.906,1.217 2.334,1.934 3.847,1.934 0.043,0 0.087,0 0.13,-0.002 1.561,-0.043 3.002,-0.842 3.868,-2.143 0.321,-0.486 32.637,-49.287 64.517,-108.976 43.03,-80.563 64.848,-141.624 64.848,-181.482 C 346.693,59.825 286.846,0 213.285,0 Z m 61.58,136.62 c 0,34.124 -27.761,61.884 -61.885,61.884 -34.123,0 -61.884,-27.761 -61.884,-61.884 0,-34.123 27.761,-61.884 61.884,-61.884 34.124,0 61.885,27.761 61.885,61.884 z"
   id="path2" />
</g>
</svg>